<?xml version="1.0" encoding="UTF-8" standalone="no"?>
<svg
   xmlns:dc="http://purl.org/dc/elements/1.1/"
   xmlns:cc="http://creativecommons.org/ns#"
   xmlns:rdf="http://www.w3.org/1999/02/22-rdf-syntax-ns#"
   xmlns:svg="http://www.w3.org/2000/svg"
   xmlns="http://www.w3.org/2000/svg"
   xmlns:sodipodi="http://sodipodi.sourceforge.net/DTD/sodipodi-0.dtd"
   xmlns:inkscape="http://www.inkscape.org/namespaces/inkscape"
   height="18.293348"
   viewBox="0 0 1.2433259 1.9293766"
   width="10.975567"
   version="1.1"
   id="svg46"
   sodipodi:docname="experimental.svg"
   inkscape:version="1.0.2 (e86c870879, 2021-01-15, custom)">
  <metadata
     id="metadata52">
    <rdf:RDF>
      <cc:Work
         rdf:about="">
        <dc:format>image/svg+xml</dc:format>
        <dc:type
           rdf:resource="http://purl.org/dc/dcmitype/StillImage" />
        <dc:title></dc:title>
      </cc:Work>
    </rdf:RDF>
  </metadata>
  <defs
     id="defs50" />
  <sodipodi:namedview
     pagecolor="#ffffff"
     bordercolor="#666666"
     borderopacity="1"
     objecttolerance="10"
     gridtolerance="10"
     guidetolerance="10"
     inkscape:pageopacity="0"
     inkscape:pageshadow="2"
     inkscape:window-width="1440"
     inkscape:window-height="872"
     id="namedview48"
     showgrid="false"
     inkscape:zoom="6.6733202"
     inkscape:cx="31.341153"
     inkscape:cy="20.786599"
     inkscape:window-x="0"
     inkscape:window-y="0"
     inkscape:window-maximized="1"
     inkscape:current-layer="svg46" />
  <g
     id="g923"
     transform="translate(-75.154809,-39.21208)">
    <path
       id="path15"
       d="m 76.392244,40.678323 c -0.199374,-0.21354 -0.521895,-0.256344 -0.770066,-0.102207 -0.03511,0.02534 -0.07229,0.04767 -0.111153,0.06677 -0.126772,0.05651 -0.226824,-0.08958 -0.356053,-0.118008 0.02382,-0.22334 0.166343,-0.416431 0.372754,-0.504992 0.07694,-0.03029 0.133758,-0.09687 0.151592,-0.177608 l 0.0961,-0.457142 0.486321,0.102228 -0.09609,0.457143 c -0.0161,0.08097 0.0082,0.164708 0.06517,0.224442 0.127819,0.136789 0.187128,0.32393 0.161432,0.509372 z"
       fill="#b0d3f0"
       style="fill:#ffffff;fill-opacity:0.171098;stroke-width:0.0621191" />
    <rect
       id="rect17"
       fill="#90bae1"
       height="0.31059411"
       rx="0.062118817"
       width="0.62118822"
       x="82.194626"
       y="22.706463"
       style="fill:#71b42e;fill-opacity:1;stroke-width:0.0621191"
       transform="rotate(11.87114)" />
    <path
       id="path37"
       d="m 75.578853,41.180826 c -0.276076,-0.09373 -0.450656,-0.365904 -0.420715,-0.655916 0.424627,0.09376 0.400369,-0.06564 0.610799,-0.130588 0.249265,-0.07456 0.46153,0.108441 0.622219,0.283138 -0.02548,0.182918 -0.131055,0.345007 -0.288038,0.44229 -0.156986,0.09728 -0.34912,0.119665 -0.524265,0.06108 z"
       fill="#955ba5"
       style="fill:#71b42e;fill-opacity:1;stroke-width:0.0621191" />
    <circle
       id="circle39"
       cx="82.629456"
       cy="24.321552"
       fill="#b49aca"
       r="0.12423763"
       style="fill:#ffffff;fill-opacity:0.453029;stroke-width:0.0621191"
       transform="rotate(11.87114)" />
    <circle
       id="circle41"
       cx="82.256744"
       cy="24.383671"
       fill="#b49aca"
       r="0.062118817"
       style="fill:#ffffff;fill-opacity:0.453029;stroke-width:0.0621191"
       transform="rotate(11.87114)" />
  </g>
</svg>
