<?xml version="1.0" encoding="UTF-8" standalone="no"?>
<svg
   xmlns:dc="http://purl.org/dc/elements/1.1/"
   xmlns:cc="http://creativecommons.org/ns#"
   xmlns:rdf="http://www.w3.org/1999/02/22-rdf-syntax-ns#"
   xmlns:svg="http://www.w3.org/2000/svg"
   xmlns="http://www.w3.org/2000/svg"
   xmlns:sodipodi="http://sodipodi.sourceforge.net/DTD/sodipodi-0.dtd"
   xmlns:inkscape="http://www.inkscape.org/namespaces/inkscape"
   viewBox="0 0 48 48"
   version="1.1"
   id="svg58"
   sodipodi:docname="firefox.svg"
   inkscape:version="1.0.2 (e86c870879, 2021-01-15)">
  <metadata
     id="metadata62">
    <rdf:RDF>
      <cc:Work
         rdf:about="">
        <dc:format>image/svg+xml</dc:format>
        <dc:type
           rdf:resource="http://purl.org/dc/dcmitype/StillImage" />
      </cc:Work>
    </rdf:RDF>
  </metadata>
  <sodipodi:namedview
     pagecolor="#ffffff"
     bordercolor="#666666"
     borderopacity="1"
     objecttolerance="10"
     gridtolerance="10"
     guidetolerance="10"
     inkscape:pageopacity="0"
     inkscape:pageshadow="2"
     inkscape:window-width="1440"
     inkscape:window-height="874"
     id="namedview60"
     showgrid="false"
     inkscape:zoom="6.6666667"
     inkscape:cx="33.106499"
     inkscape:cy="34.507906"
     inkscape:window-x="0"
     inkscape:window-y="0"
     inkscape:window-maximized="1"
     inkscape:current-layer="svg58" />
  <defs
     id="defs12">
    <linearGradient
       id="linearGradient3764"
       x1="1"
       x2="47"
       gradientUnits="userSpaceOnUse"
       gradientTransform="matrix(0,-1,1,0,-1.5e-6,47.999998)">
      <stop
         style="stop-color:#60c3e0;stop-opacity:1"
         id="stop2" />
      <stop
         offset="1"
         style="stop-color:#71c9e3;stop-opacity:1"
         id="stop4" />
    </linearGradient>
    <linearGradient
       gradientTransform="translate(0.012,0.0069995)"
       id="linearGradient4225"
       y1="47"
       x2="-0.016"
       y2="0.993"
       gradientUnits="userSpaceOnUse">
      <stop
         style="stop-color:#cf5225;stop-opacity:1"
         id="stop7" />
      <stop
         offset="1"
         style="stop-color:#da5c2e;stop-opacity:1"
         id="stop9" />
    </linearGradient>
  </defs>
  <g
     id="g40">
    <g
       id="g38">
      <g
         transform="translate(1,1)"
         id="g36">
        <g
           style="opacity:0.1"
           id="g34">
          <!-- color: #5fad38 -->
        </g>
      </g>
    </g>
  </g>
  <g
     id="g44">
    <g
       id="g42">
      <!-- color: #5fad38 -->
    </g>
  </g>
  <g
     id="g937"
     transform="matrix(0.79002385,0,0,0.79002385,-1.2807632,-1.6757752)">
    <path
       style="opacity:0.2"
       d="M 14.3371,24.069652 C 7.7872392,29.13482 4,25.470446 4,34.327104 4,49.610422 16.536027,62 32,62 47.463972,62 60,49.610422 60,34.327104 60,27.21168 57.282662,20.723458 52.817792,15.820751 c 0.09952,-0.0038 -0.417538,-0.401259 -0.684106,-0.302059 1.866534,3.093824 2.94086,6.719368 2.94086,10.596086 0,11.345064 -6.30966,22.584314 -17.654726,22.584314 -7.286864,0.3537 -16.99377,-4.304736 -18.487808,-8.663922 -0.963912,-2.812426 -0.7206,-5.971132 1.901904,-7.719644 1.424458,-0.90423 3.501198,-1.79703 6.786764,-1.901872 C 30.622036,28.439788 29.161684,28.66431 29.017312,28.0667 28.08496,27.811752 26.42995,27.459424 24.144858,25.660968 22.120926,24.068052 21.180892,23.464044 15.282742,23.40895 14.168471,21.263354 14.446317,26.617268 14.3371,24.069652 Z"
       id="path2" />
    <path
       style="fill:#ffde3f"
       d="m 40.804948,3 c 1.18114,3.1443412 5.452452,7.19946 11.086258,14.415001 4.77129,6.110871 5.318106,12.928837 7.081964,19.058969 L 45.715454,47.884842 30.739942,32.511354 C 30.672702,22.29109 28.21961,11.553669 40.804948,3 Z"
       id="path4" />
    <path
       style="opacity:0.2;fill:#ffffff"
       d="M 40.804688,3 C 31.766937,9.1425386 30.491751,16.412034 30.511719,23.806641 30.617401,16.758395 32.174628,9.8654499 40.804688,4 c 1.181139,3.1443412 5.452131,7.198522 11.085937,14.414062 4.56267,5.84368 5.272278,12.329026 6.867187,18.246094 l 0.214844,-0.185547 C 57.208798,30.344477 56.661915,23.524933 51.890625,17.414062 46.256819,10.198522 41.985827,6.1443412 40.804688,3 Z"
       id="path6" />
    <path
       style="fill:#ff750e"
       d="m 13.538,21.399526 c 1.945071,-1.93003 5.12116,-6.424178 8.910732,-7.669997 -1.018114,5.426646 0.301782,7.151441 0.95875,9.925879 l -6.09088,-1.579118 z"
       id="path8" />
    <circle
       style="fill:#8357cd"
       cx="32"
       cy="33"
       r="14"
       id="circle10" />
    <path
       style="fill:#ffba36"
       d="m 36.43523,23.12941 c -0.19914,0.002 -0.39819,0.009 -0.596962,0.0212 4.054692,1.90338 6.646048,5.976576 6.651942,10.45579 -0.003,6.154196 -4.824218,11.3691 -10.97021,11.686784 1.536824,0.727182 3.215054,0.966082 4.91523,0.970816 6.388438,5.8e-5 11.567344,-5.178734 11.567428,-11.567172 C 48.002716,28.30829 42.823768,23.129342 36.43523,23.1294 Z"
       id="path12" />
    <path
       id="ellipse841"
       style="fill:#f74e66"
       d="M 14.3371,23.069652 C 7.7872392,28.13482 4,24.470446 4,33.327104 4,48.610422 16.536027,61 32,61 47.463972,61 60,48.610422 60,33.327104 60,26.21168 57.282662,19.723457 52.817792,14.820751 c 0.09952,-0.0038 -0.417538,-0.401259 -0.684106,-0.302059 1.866534,3.093824 2.94086,6.719368 2.94086,10.596086 0,11.345064 -6.30966,22.584314 -17.654726,22.584314 -7.286864,0.3537 -16.99377,-4.304736 -18.487808,-8.663922 -0.963912,-2.812426 -0.7206,-5.971132 1.901904,-7.719644 1.424458,-0.90423 3.501198,-1.79703 6.786764,-1.901872 C 30.622036,27.439788 29.161684,27.66431 29.017312,27.0667 28.08496,26.811752 26.42995,26.459424 24.144858,24.660968 22.120926,23.068052 21.180892,22.464044 15.282742,22.40895 14.168471,20.263354 14.446317,25.617268 14.3371,23.069652 Z" />
    <path
       style="opacity:0.1"
       d="M 13.959406,12.521388 C 7.6899162,17.369737 4.3744002,24.804102 4.0327014,33.198772 4.3912248,46.063772 16.135054,56 30.59994,56 45.290744,56 57.199994,45.744346 57.199994,32.599942 c 0,-3.542486 -0.871324,-6.90198 -2.422662,-9.923066 0.1888,1.118968 0.298048,2.264416 0.298048,3.437116 C 55.07538,37.459056 45.877046,46 34.53198,46 27.245116,46.353702 21.76349,42.985704 20.269452,38.626518 19.305541,35.81409 19.62117,34.627362 22.243674,32.87885 c 1.424458,-0.90423 3.430074,-1.516646 6.715638,-1.621488 3.001356,-1.973866 3.231488,-2.732866 3.087116,-3.330476 -0.932352,-0.254948 -3.50359,-1.242174 -5.788682,-3.040632 -2.023936,-1.592914 -5.383002,-4.803242 -11.281152,-4.858336 -1.11427,-2.145595 -0.907971,-4.958915 -1.017188,-7.50653 z"
       id="path15" />
    <path
       style="fill:#ff7f1f"
       d="M 13.959406,11.521388 C 7.6899162,16.369737 4.3744002,23.804102 4.0327014,32.198772 4.3912248,45.063772 16.135054,55 30.59994,55 45.290744,55 57.199994,44.744346 57.199994,31.599942 c 0,-3.542486 -0.871324,-6.90198 -2.422662,-9.923066 0.1888,1.118968 0.298048,2.264416 0.298048,3.437116 C 55.07538,36.459056 45.877046,45 34.53198,45 27.245116,45.353702 21.76349,41.985704 20.269452,37.626518 19.305541,34.81409 19.62117,33.627362 22.243674,31.87885 c 1.424458,-0.90423 3.430074,-1.516646 6.715638,-1.621488 3.001356,-1.973866 3.231488,-2.732866 3.087116,-3.330476 -0.932352,-0.254948 -3.50359,-1.242174 -5.788682,-3.040632 -2.023936,-1.592914 -5.383002,-4.803242 -11.281152,-4.858336 -1.11427,-2.145595 -0.907971,-4.958915 -1.017188,-7.50653 z"
       id="path17" />
    <path
       style="fill:#ffba36"
       d="m 16.511719,25.007812 c -1.905454,-0.04134 -3.510928,0.614812 -4.785157,1.484376 -0.228236,0.228238 1.815639,4.35756 6.074219,4.402344 C 17.406493,37.764078 22.547558,42.787234 26,43.78125 l 1.515624,0.277344 C 23.84605,42.799716 21.228834,40.42398 20.269532,37.625 c -0.963912,-2.812428 -0.649849,-3.997582 1.972656,-5.746094 1.424458,-0.90423 3.429278,-1.516252 6.714844,-1.621094 1.500678,-0.986932 2.31199,-1.67181 2.726562,-2.183594 0.207328,-0.255592 0.315112,-0.466306 0.363282,-0.652342 0.04814,-0.18626 0.0361,-0.346692 0,-0.496094 -4.04561,4.074212 -9.790084,-0.408866 -14.242188,-1.773438 -0.418954,-0.08944 -0.853249,-0.13502 -1.292969,-0.14454 z"
       id="path19" />
    <path
       style="opacity:0.2;fill:#ffffff"
       d="m 13.958984,11.521484 c -6.2694894,4.848349 -9.5840821,12.283065 -9.9257809,20.677735 0.00495,0.177732 0.020021,0.352701 0.029297,0.529297 0.4451311,-8.200572 3.7450354,-15.449966 9.8964839,-20.207032 0.109217,2.547615 -0.09669,5.360265 1.017578,7.50586 5.89815,0.05509 9.257315,3.266461 11.28125,4.859375 2.159475,1.699592 4.528336,2.651507 5.574219,2.96875 0.252746,-0.38898 0.275783,-0.675487 0.214844,-0.927735 -0.932352,-0.254948 -3.50397,-1.242557 -5.789063,-3.041015 -2.023935,-1.592914 -5.3831,-4.804281 -11.28125,-4.859375 -1.114269,-2.145595 -0.908361,-4.958245 -1.017578,-7.50586 z m 40.81836,10.15625 c 0.07636,0.452575 0.129365,0.911758 0.177734,1.373047 1.367266,2.786296 2.158562,5.847772 2.230469,9.070313 0.0042,-0.173874 0.01367,-0.346571 0.01367,-0.521485 0,-3.542486 -0.870537,-6.900789 -2.421875,-9.921875 z m 0.283203,4.070313 C 54.724117,36.774848 45.663341,45 34.53125,45 27.244386,45.353702 21.763569,41.986139 20.269531,37.626953 c -0.232209,-0.677522 -0.385746,-1.257932 -0.455078,-1.777344 -0.103706,0.755723 0.06109,1.627794 0.455078,2.777344 1.494038,4.359186 6.974855,7.726749 14.261719,7.373047 11.345066,0 20.544922,-8.541655 20.544922,-19.886719 0,-0.123187 -0.01325,-0.242647 -0.01563,-0.365234 z"
       id="path21" />
  </g>
</svg>
